G04 (created by PCBNEW-RS274X (2011-05-25)-stable) date Mon 29 Jun 2020 12:12:14 AM CEST*
G01*
G70*
G90*
%MOIN*%
G04 Gerber Fmt 3.4, Leading zero omitted, Abs format*
%FSLAX34Y34*%
G04 APERTURE LIST*
%ADD10C,0.006000*%
%ADD11R,0.060000X0.060000*%
%ADD12C,0.060000*%
%ADD13C,0.010000*%
G04 APERTURE END LIST*
G54D10*
G54D11*
X57500Y-34000D03*
G54D12*
X58500Y-34000D03*
G54D11*
X57500Y-38000D03*
G54D12*
X58500Y-38000D03*
G54D10*
G36*
X59175Y-38675D02*
X59043Y-38675D01*
X59043Y-38079D01*
X59043Y-34079D01*
X59032Y-33866D01*
X58972Y-33719D01*
X58878Y-33692D01*
X58808Y-33762D01*
X58808Y-33622D01*
X58781Y-33528D01*
X58579Y-33457D01*
X58366Y-33468D01*
X58219Y-33528D01*
X58192Y-33622D01*
X58500Y-33929D01*
X58808Y-33622D01*
X58808Y-33762D01*
X58571Y-34000D01*
X58878Y-34308D01*
X58972Y-34281D01*
X59043Y-34079D01*
X59043Y-38079D01*
X59032Y-37866D01*
X58972Y-37719D01*
X58878Y-37692D01*
X58808Y-37762D01*
X58808Y-37622D01*
X58808Y-34378D01*
X58500Y-34071D01*
X58429Y-34141D01*
X58429Y-34000D01*
X58122Y-33692D01*
X58049Y-33712D01*
X58049Y-33651D01*
X58011Y-33559D01*
X57941Y-33489D01*
X57850Y-33451D01*
X57751Y-33451D01*
X57151Y-33451D01*
X57059Y-33489D01*
X56989Y-33559D01*
X56951Y-33650D01*
X56951Y-33749D01*
X56951Y-34349D01*
X56989Y-34441D01*
X57059Y-34511D01*
X57150Y-34549D01*
X57249Y-34549D01*
X57849Y-34549D01*
X57941Y-34511D01*
X58011Y-34441D01*
X58049Y-34350D01*
X58049Y-34287D01*
X58122Y-34308D01*
X58429Y-34000D01*
X58429Y-34141D01*
X58192Y-34378D01*
X58219Y-34472D01*
X58421Y-34543D01*
X58634Y-34532D01*
X58781Y-34472D01*
X58808Y-34378D01*
X58808Y-37622D01*
X58781Y-37528D01*
X58579Y-37457D01*
X58366Y-37468D01*
X58219Y-37528D01*
X58192Y-37622D01*
X58500Y-37929D01*
X58808Y-37622D01*
X58808Y-37762D01*
X58571Y-38000D01*
X58878Y-38308D01*
X58972Y-38281D01*
X59043Y-38079D01*
X59043Y-38675D01*
X58808Y-38675D01*
X58808Y-38378D01*
X58500Y-38071D01*
X58429Y-38141D01*
X58429Y-38000D01*
X58122Y-37692D01*
X58049Y-37712D01*
X58049Y-37651D01*
X58011Y-37559D01*
X57941Y-37489D01*
X57850Y-37451D01*
X57751Y-37451D01*
X57151Y-37451D01*
X57059Y-37489D01*
X56989Y-37559D01*
X56951Y-37650D01*
X56951Y-37749D01*
X56951Y-38349D01*
X56989Y-38441D01*
X57059Y-38511D01*
X57150Y-38549D01*
X57249Y-38549D01*
X57849Y-38549D01*
X57941Y-38511D01*
X58011Y-38441D01*
X58049Y-38350D01*
X58049Y-38287D01*
X58122Y-38308D01*
X58429Y-38000D01*
X58429Y-38141D01*
X58192Y-38378D01*
X58219Y-38472D01*
X58421Y-38543D01*
X58634Y-38532D01*
X58781Y-38472D01*
X58808Y-38378D01*
X58808Y-38675D01*
X56825Y-38675D01*
X56825Y-37000D01*
X56825Y-33325D01*
X59175Y-33325D01*
X59175Y-37000D01*
X59175Y-38675D01*
X59175Y-38675D01*
G37*
G54D13*
X59175Y-38675D02*
X59043Y-38675D01*
X59043Y-38079D01*
X59043Y-34079D01*
X59032Y-33866D01*
X58972Y-33719D01*
X58878Y-33692D01*
X58808Y-33762D01*
X58808Y-33622D01*
X58781Y-33528D01*
X58579Y-33457D01*
X58366Y-33468D01*
X58219Y-33528D01*
X58192Y-33622D01*
X58500Y-33929D01*
X58808Y-33622D01*
X58808Y-33762D01*
X58571Y-34000D01*
X58878Y-34308D01*
X58972Y-34281D01*
X59043Y-34079D01*
X59043Y-38079D01*
X59032Y-37866D01*
X58972Y-37719D01*
X58878Y-37692D01*
X58808Y-37762D01*
X58808Y-37622D01*
X58808Y-34378D01*
X58500Y-34071D01*
X58429Y-34141D01*
X58429Y-34000D01*
X58122Y-33692D01*
X58049Y-33712D01*
X58049Y-33651D01*
X58011Y-33559D01*
X57941Y-33489D01*
X57850Y-33451D01*
X57751Y-33451D01*
X57151Y-33451D01*
X57059Y-33489D01*
X56989Y-33559D01*
X56951Y-33650D01*
X56951Y-33749D01*
X56951Y-34349D01*
X56989Y-34441D01*
X57059Y-34511D01*
X57150Y-34549D01*
X57249Y-34549D01*
X57849Y-34549D01*
X57941Y-34511D01*
X58011Y-34441D01*
X58049Y-34350D01*
X58049Y-34287D01*
X58122Y-34308D01*
X58429Y-34000D01*
X58429Y-34141D01*
X58192Y-34378D01*
X58219Y-34472D01*
X58421Y-34543D01*
X58634Y-34532D01*
X58781Y-34472D01*
X58808Y-34378D01*
X58808Y-37622D01*
X58781Y-37528D01*
X58579Y-37457D01*
X58366Y-37468D01*
X58219Y-37528D01*
X58192Y-37622D01*
X58500Y-37929D01*
X58808Y-37622D01*
X58808Y-37762D01*
X58571Y-38000D01*
X58878Y-38308D01*
X58972Y-38281D01*
X59043Y-38079D01*
X59043Y-38675D01*
X58808Y-38675D01*
X58808Y-38378D01*
X58500Y-38071D01*
X58429Y-38141D01*
X58429Y-38000D01*
X58122Y-37692D01*
X58049Y-37712D01*
X58049Y-37651D01*
X58011Y-37559D01*
X57941Y-37489D01*
X57850Y-37451D01*
X57751Y-37451D01*
X57151Y-37451D01*
X57059Y-37489D01*
X56989Y-37559D01*
X56951Y-37650D01*
X56951Y-37749D01*
X56951Y-38349D01*
X56989Y-38441D01*
X57059Y-38511D01*
X57150Y-38549D01*
X57249Y-38549D01*
X57849Y-38549D01*
X57941Y-38511D01*
X58011Y-38441D01*
X58049Y-38350D01*
X58049Y-38287D01*
X58122Y-38308D01*
X58429Y-38000D01*
X58429Y-38141D01*
X58192Y-38378D01*
X58219Y-38472D01*
X58421Y-38543D01*
X58634Y-38532D01*
X58781Y-38472D01*
X58808Y-38378D01*
X58808Y-38675D01*
X56825Y-38675D01*
X56825Y-37000D01*
X56825Y-33325D01*
X59175Y-33325D01*
X59175Y-37000D01*
X59175Y-38675D01*
M02*
