G04 (created by PCBNEW-RS274X (2011-05-25)-stable) date Mon 29 Jun 2020 12:12:14 AM CEST*
G01*
G70*
G90*
%MOIN*%
G04 Gerber Fmt 3.4, Leading zero omitted, Abs format*
%FSLAX34Y34*%
G04 APERTURE LIST*
%ADD10C,0.006000*%
%ADD11C,0.005000*%
%ADD12C,0.004500*%
%ADD13R,0.045000X0.065000*%
%ADD14R,0.080000X0.080000*%
%ADD15C,0.080000*%
G04 APERTURE END LIST*
G54D10*
G54D11*
X57950Y-36750D02*
X57050Y-36750D01*
X57050Y-36750D02*
X57050Y-36250D01*
X57050Y-36250D02*
X57950Y-36250D01*
X57950Y-36250D02*
X57950Y-36750D01*
X58050Y-36250D02*
X58950Y-36250D01*
X58950Y-36250D02*
X58950Y-36750D01*
X58950Y-36750D02*
X58050Y-36750D01*
X58050Y-36750D02*
X58050Y-36250D01*
G54D10*
X57000Y-34500D02*
X57000Y-33500D01*
X57000Y-33500D02*
X59000Y-33500D01*
X59000Y-33500D02*
X59000Y-34500D01*
X59000Y-34500D02*
X57000Y-34500D01*
X57000Y-38500D02*
X57000Y-37500D01*
X57000Y-37500D02*
X59000Y-37500D01*
X59000Y-37500D02*
X59000Y-38500D01*
X59000Y-38500D02*
X57000Y-38500D01*
G54D12*
X57471Y-36613D02*
X57411Y-36480D01*
X57368Y-36613D02*
X57368Y-36333D01*
X57436Y-36333D01*
X57454Y-36347D01*
X57462Y-36360D01*
X57471Y-36387D01*
X57471Y-36427D01*
X57462Y-36453D01*
X57454Y-36467D01*
X57436Y-36480D01*
X57368Y-36480D01*
X57642Y-36613D02*
X57539Y-36613D01*
X57591Y-36613D02*
X57591Y-36333D01*
X57574Y-36373D01*
X57556Y-36400D01*
X57539Y-36413D01*
X58471Y-36587D02*
X58462Y-36600D01*
X58436Y-36613D01*
X58419Y-36613D01*
X58394Y-36600D01*
X58376Y-36573D01*
X58368Y-36547D01*
X58359Y-36493D01*
X58359Y-36453D01*
X58368Y-36400D01*
X58376Y-36373D01*
X58394Y-36347D01*
X58419Y-36333D01*
X58436Y-36333D01*
X58462Y-36347D01*
X58471Y-36360D01*
X58642Y-36613D02*
X58539Y-36613D01*
X58591Y-36613D02*
X58591Y-36333D01*
X58574Y-36373D01*
X58556Y-36400D01*
X58539Y-36413D01*
G54D10*
X57778Y-33371D02*
X57778Y-33071D01*
X57893Y-33071D01*
X57921Y-33086D01*
X57936Y-33100D01*
X57950Y-33129D01*
X57950Y-33171D01*
X57936Y-33200D01*
X57921Y-33214D01*
X57893Y-33229D01*
X57778Y-33229D01*
X58236Y-33371D02*
X58064Y-33371D01*
X58150Y-33371D02*
X58150Y-33071D01*
X58121Y-33114D01*
X58093Y-33143D01*
X58064Y-33157D01*
X57778Y-37371D02*
X57778Y-37071D01*
X57893Y-37071D01*
X57921Y-37086D01*
X57936Y-37100D01*
X57950Y-37129D01*
X57950Y-37171D01*
X57936Y-37200D01*
X57921Y-37214D01*
X57893Y-37229D01*
X57778Y-37229D01*
X58064Y-37100D02*
X58078Y-37086D01*
X58107Y-37071D01*
X58178Y-37071D01*
X58207Y-37086D01*
X58221Y-37100D01*
X58236Y-37129D01*
X58236Y-37157D01*
X58221Y-37200D01*
X58050Y-37371D01*
X58236Y-37371D01*
%LPC*%
G54D13*
X57800Y-36500D03*
X57200Y-36500D03*
X58200Y-36500D03*
X58800Y-36500D03*
G54D14*
X57500Y-34000D03*
G54D15*
X58500Y-34000D03*
G54D14*
X57500Y-38000D03*
G54D15*
X58500Y-38000D03*
M02*
